<svg xmlns="http://www.w3.org/2000/svg" xmlns:xlink="http://www.w3.org/1999/xlink" viewBox="0 0 1211.01 571">
  <defs>
    <radialGradient id="radial-gradient" cx="1095.02" cy="189.57" r="67.25" gradientTransform="translate(-720.05 82.75) scale(1.05 1.23)" gradientUnits="userSpaceOnUse">
      <stop offset="0" stop-color="#b3edff"/>
      <stop offset="0.22" stop-color="#aee9fc"/>
      <stop offset="0.36" stop-color="#a8e5f8"/>
      <stop offset="0.43" stop-color="#a1e0f3"/>
      <stop offset="0.54" stop-color="#8cd0e7"/>
      <stop offset="0.68" stop-color="#6bb8d3"/>
      <stop offset="0.83" stop-color="#3c95b6"/>
      <stop offset="0.99" stop-color="#026992"/>
      <stop offset="1" stop-color="#006891"/>
    </radialGradient>
    <radialGradient id="radial-gradient-2" cx="658.78" cy="250.44" r="73.35" gradientTransform="matrix(1, 0, 0, 1, 0, 0)" xlink:href="#radial-gradient"/>
    <radialGradient id="radial-gradient-3" cx="529.5" cy="262.44" r="71.71" gradientTransform="matrix(-1, 0, 0, 1, 1192.01, 108)" xlink:href="#radial-gradient"/>
    <radialGradient id="radial-gradient-4" cx="315.01" cy="315" r="29" gradientTransform="matrix(1, 0, 0, 1, 0, 0)" xlink:href="#radial-gradient"/>
    <radialGradient id="radial-gradient-5" cx="524.76" cy="316.75" r="59.25" gradientTransform="matrix(1, 0, 0, 1, 0, 0)" xlink:href="#radial-gradient"/>
    <radialGradient id="radial-gradient-6" cx="760.01" cy="206" r="36" gradientTransform="matrix(1, 0, 0, 1, 0, 0)" xlink:href="#radial-gradient"/>
    <radialGradient id="radial-gradient-7" cx="775.01" cy="426" r="43" gradientTransform="matrix(1, 0, 0, 1, 0, 0)" xlink:href="#radial-gradient"/>
  </defs>
  <g id="right-channels">
    <polyline id="right-blue-pipe" points="766.51 396.5 1085.01 396.5 1167.51 504.5 1167.51 517" style="fill: none;stroke: #175f75;stroke-linejoin: round;stroke-width: 41px"/>
    <polyline id="right-pink-pipe" points="788.51 199.5 1107.01 199.5 1190.51 99.5 1190.51 90" style="fill: none;stroke: #88599e;stroke-miterlimit: 10;stroke-width: 41px"/>
    <polyline id="right-light-blue-pipe" points="776.01 451.5 1055.01 451.5 1098.51 507.5 1114.51 530.5" style="fill: none;stroke: #2789af;stroke-linejoin: round;stroke-width: 41px"/>
  </g>
  <g id="left-channels">
    <path id="left-purple-pipe" d="M943.5,400V227.23a10.18,10.18,0,0,0-3-7.22L700.5-20.5" transform="translate(-685.99 108)" style="fill: none;stroke: #491d5e;stroke-miterlimit: 10;stroke-width: 41px"/>
    <path id="left-pink-pipe" d="M995.5,400V203.23a10.18,10.18,0,0,0-3-7.22L772-25" transform="translate(-685.99 108)" style="fill: none;stroke: #88599e;stroke-miterlimit: 10;stroke-width: 41px"/>
  </g>
  <g id="main-bus">
    <line id="middle-light-blue-pipe" x1="524.51" y1="507" x2="524.51" y2="106" style="fill: none;stroke: #2789af;stroke-miterlimit: 10;stroke-width: 41px"/>
    <line id="middle-blue-pipe" x1="569.51" y1="507" x2="569.51" y2="106" style="fill: none;stroke: #175f75;stroke-miterlimit: 10;stroke-width: 41px"/>
    <line id="middle-pink-pipe" x1="479.51" y1="507" x2="479.51" y2="106" style="fill: none;stroke: #88599e;stroke-miterlimit: 10;stroke-width: 41px"/>
  </g>
  <g id="pipes">
    <line id="middle-pipe" x1="326.01" y1="316.75" x2="525.01" y2="316.75" style="stroke: #002635;stroke-miterlimit: 10;stroke-width: 45px;fill: url(#radial-gradient)"/>
    <line id="top-right-pipe" x1="565.51" y1="295.84" x2="752.06" y2="205.05" style="stroke: #002635;stroke-miterlimit: 10;stroke-width: 45px;fill: url(#radial-gradient-2)"/>
    <line id="bottom-right-pipe" x1="569.51" y1="330" x2="755.51" y2="410.88" style="stroke: #002635;stroke-miterlimit: 10;stroke-width: 45px;fill: url(#radial-gradient-3)"/>
  </g>
  <g id="messages">
    <g id="purple-message">
      <circle cx="300.01" cy="68" r="17" style="fill: #491d5e"/>
    </g>
    <g id="pink-message">
      <circle cx="262.01" cy="68" r="17" style="fill: #8959a5"/>
    </g>
    <g id="blue-message">
      <circle cx="338.01" cy="68" r="17" style="fill: #105666"/>
    </g>
    <g id="light-blue-message">
      <circle cx="377.01" cy="68" r="17" style="fill: #328c9b"/>
    </g>
  </g>
  <g id="nodes">
    <circle id="left-node" cx="315.01" cy="315" r="29" style="stroke: #002635;stroke-miterlimit: 10;stroke-width: 10px;fill: url(#radial-gradient-4)"/>
    <circle id="middle-node" cx="524.76" cy="316.75" r="59.25" style="stroke: #002635;stroke-miterlimit: 10;stroke-width: 16px;fill: url(#radial-gradient-5)"/>
    <circle id="top-right-node" cx="760.01" cy="206" r="36" style="stroke: #002635;stroke-miterlimit: 10;stroke-width: 16px;fill: url(#radial-gradient-6)"/>
    <circle id="bottom-right-node" cx="775.01" cy="426" r="43" style="stroke: #002635;stroke-miterlimit: 10;stroke-width: 16px;fill: url(#radial-gradient-7)"/>
  </g>
  <g id="paths">
    <path id="pink-path-1" d="M691-108,994.68,200.58a21.79,21.79,0,0,0,15.33,6.5l200.74,1.67,233.4-112.42A24.19,24.19,0,0,1,1454.38,94L1793,91.5,1895-33" transform="translate(-685.99 108)" style="fill: none"/>
    <path id="blue-path-1" d="M1853.5,429.68V401.31a14.24,14.24,0,0,0-2.92-8.63L1774.45,293a11.48,11.48,0,0,0-9.13-4.52H1487.15a11.12,11.12,0,0,0-8.48,3.93L1468,305.08a12.35,12.35,0,0,1-14.38,3.34L1263,225.26a11.62,11.62,0,0,1-7-10.64V-14.21" transform="translate(-685.99 108)" style="fill: none"/>
    <path id="light-blue-path-1" d="M1211,412.07V-.08a15.33,15.33,0,0,0-7.66-13.27L1171-32" transform="translate(-685.99 108)" style="fill: none"/>
    <path id="pink-path-2" d="M1165.5,409V223.48A14.48,14.48,0,0,0,1151,209H1006.87a14.16,14.16,0,0,1-10-4.15L741-57" transform="translate(-685.99 108)" style="fill: none"/>
    <path id="purple-path" d="M691.7-29.25,938.18,217.23A18.07,18.07,0,0,1,943.47,230V417.79" transform="translate(-685.99 108)" style="fill: none"/>
    <path id="pink-path-3" d="M1165.5-29,1165,194.35A12.68,12.68,0,0,1,1152.35,207H1007.67a12.17,12.17,0,0,0-12.17,12.17V463" transform="translate(-685.99 108)" style="fill: none"/>
    <path id="blue-path-2" d="M1255.5,405.46V231a5.86,5.86,0,0,1,8.23-5.36L1450.3,308a16,16,0,0,0,13.31-.2l37.79-18.1a12.8,12.8,0,0,1,5.48-1.24h255.76a12.6,12.6,0,0,1,9.9,4.82l78,99.42a13.84,13.84,0,0,1,3,8.54v35.89" transform="translate(-685.99 108)" style="fill: none"/>
    <path id="light-blue-path-2" d="M1800.5,422.5l-55.65-73.89a12.83,12.83,0,0,0-10.24-5.11H1480a13.22,13.22,0,0,1-9.35-3.88L1430.26,299a13.2,13.2,0,0,0-4.4-2.93L1222.2,213.3a8.16,8.16,0,0,0-11.23,7.54L1210.5,420" transform="translate(-685.99 108)" style="fill: none"/>
  </g>
</svg>
