<?xml version="1.0" encoding="utf-8"?>
<!-- Generator: Adobe Illustrator 25.0.0, SVG Export Plug-In . SVG Version: 6.00 Build 0)  -->
<svg version="1.1" id="Layer_1" xmlns="http://www.w3.org/2000/svg" xmlns:xlink="http://www.w3.org/1999/xlink" x="0px" y="0px"
	 viewBox="0 0 266 154" style="enable-background:new 0 0 266 154;" xml:space="preserve">
<style type="text/css">
	.st0{fill: #01405a;}
	.st1{fill: #000000;}
	.st2{fill:url(#SVGID_1_);}
	.st3{fill:url(#SVGID_2_);}
	.st4{fill:url(#SVGID_3_);}
	.st5{fill:url(#SVGID_4_);}
	.st6{fill:url(#SVGID_5_);}
</style>
<g id="Layer_1_1_">
	<path id="stroke" class="st0" d="M255.4,21.2c-12.8-9.1-28.5-15.6-45.5-18.8c-2.5-0.5-5-0.8-7.4-1.1c-12.7-1.8-25.6-1.9-38.3-0.2
		c-9.6,1.3-19.1,3.6-28.2,6.9l-0.3,0.1C135.1,8.5,66.8,35.4,46,43.9c-7.1,2.9-12.5,8.9-14.5,16.3l-4.1,14.9L6.9,81.7
		c-3.7,1.1-6.4,4.4-6.8,8.2c-0.3,2.8,0.6,5.6,2.6,7.6c0.2,0.2,0.3,0.3,0.5,0.5c-3.7,3.7-3.7,9.7,0,13.4c1.8,1.8,4.2,2.8,6.7,2.8h0.2
		l6.5-0.2l-1.9,6.9l-8.5,2.8c-1.3,0.4-2.5,1.3-3.3,2.4c-1.2,0.9-2.1,2.2-2.5,3.6c-1.4,4.8,1.3,9.8,6.1,11.2c1,0.3,2,0.4,3.1,0.3
		l12.6-0.8c0.2,3.3,1.4,6.5,3.4,9.2c2,2.4,5,3.9,8.1,3.9h13.7c7.1,0,12.6-6.6,15.8-13.7l19.3-0.2c0.3,3.7,1.7,7.2,4,10
		c2.1,2.5,5.2,3.9,8.5,3.9h16.4c7.4,0,13.3-6.8,17-14.3l44.3-0.4c0.1,4.4,1.3,8,3.4,10.6c2,2.6,5.1,4.1,8.3,4.1H198
		c7,0,12.7-6.6,16-14.3l4.1,0.2c0.5,0,0.9,0,1.3,0c10.6,0,20.2-7.1,22.9-16.9L264,45.7v-0.1C266.5,36.4,263,26.8,255.4,21.2z"/>
	<path id="black-outline" class="st1" d="M251.3,26.9c-11.9-8.5-26.7-14.6-42.7-17.5c-2.4-0.4-4.8-0.8-7-1.1
		c-12.1-1.7-24.4-1.8-36.6-0.3c-9.1,1.2-18.1,3.4-26.7,6.6c0,0-68.6,27.1-89.6,35.7c-5.1,2.1-8.9,6.4-10.4,11.7l-5.1,18.5L9,88.3
		c-1,0.3-1.8,1.2-1.9,2.3c-0.2,1.3,0.8,2.6,2.1,2.7c0.2,0,0.3,0,0.5,0l47-4.9c0.5,0,0.9,0.4,1,0.9c0,0.4-0.3,0.8-0.7,0.9l-47.7,12
		C8,102.3,7,103.6,7.2,105c0.2,1.4,1.4,2.4,2.8,2.2l0,0l47-1.4c0.4,0,0.7,0.3,0.7,0.7c0,0.3-0.2,0.6-0.5,0.7l-32.8,5.7l-3.8,13.4
		l-12.2,4.1c-0.4,0.1-0.7,0.4-0.9,0.7c-0.6,0.9-0.4,2.2,0.6,2.8c0.4,0.2,0.8,0.4,1.2,0.3l18.6-1.2h1.8l4.5,13.4h13.4
		c3.9,0,8.5-6,10.9-13.7l31.2-0.3l4.7,13.9c0.2,0,0.5,0.1,0.7,0.1h16.4c4.3,0,9.4-6.1,12.3-14.3l56.7-0.5c-1.8,8.2-0.1,14.8,4,14.8
		H198c4,0,8.9-6.5,11.2-14.6l9.4,0.6c0.3,0,0.6,0,0.9,0c7.4,0,14.3-5.1,16.2-11.8l21.6-76.9v-0.1C258.9,37.3,256.6,30.7,251.3,26.9z
		"/>
</g>
<g id="color-overlay">

		<linearGradient id="SVGID_1_" gradientUnits="userSpaceOnUse" x1="290.8072" y1="136.1052" x2="35.1772" y2="-2.6148" gradientTransform="matrix(1 0 0 -1 0 156)">
		<stop  offset="0" style="stop-color:#9732BA"/>
		<stop  offset="0.87" style="stop-color:#0190CF"/>
	</linearGradient>
	<path class="st2" d="M245.4,35.2c-10.1-7.2-23.1-13-38.6-15.8c-5.2-1-10.5-1.5-15.7-1.5c-7.1,0-14.1,1-20.8,3
		c-2.3,0.7-4,2.5-4.6,4.8l-1.5,5.1l71.3,13.7c2.6,0.3,4.5,2.6,4.3,5.2c-0.1,1-0.5,2-1.2,2.7l-43.4,38.4l-46.8-4.6l-1.5,5.3
		c-0.5,1.8,0.5,3.7,2.3,4.2c0.2,0.1,0.4,0.1,0.7,0.1l8.6,0.6c3.3,0.1,5.2,2.6,4.3,5.7c-1.1,3.3-4.1,5.5-7.5,5.5l-12.8-0.8l-3,10.5
		l79.6,4.8h0.3c2.6,0,5.7-1.9,6.4-4.3l1.4-5.5l-9.1-0.8c-2.9,0-4.5-2.5-3.7-5.3c0.9-2.9,3.6-5,6.6-5.1c0.3,0,0.6,0,0.9,0.1l4.3,0.3
		c2.5,0.3,4.3-1.2,5-3.7L247.5,41C248.1,38.8,247.2,36.5,245.4,35.2z"/>

		<linearGradient id="SVGID_2_" gradientUnits="userSpaceOnUse" x1="258.9297" y1="194.8404" x2="3.2998" y2="56.1304" gradientTransform="matrix(1 0 0 -1 0 156)">
		<stop  offset="0" style="stop-color:#9732BA"/>
		<stop  offset="0.87" style="stop-color:#0190CF"/>
	</linearGradient>
	<path class="st3" d="M45.2,65.5L42,78.1l69-21.2c2.7-0.8,4.8-3,5.5-5.7l5-19L52.2,57.8C48.8,59.1,46.2,62,45.2,65.5z"/>

		<linearGradient id="SVGID_3_" gradientUnits="userSpaceOnUse" x1="268.4353" y1="177.3302" x2="12.8053" y2="38.6102" gradientTransform="matrix(1 0 0 -1 0 156)">
		<stop  offset="0" style="stop-color:#9732BA"/>
		<stop  offset="0.87" style="stop-color:#0190CF"/>
	</linearGradient>
	<path class="st4" d="M141,70.6l12.7-45.2c0.4-1.6-0.5-3.2-2-3.6c-0.6-0.2-1.2-0.1-1.8,0.1l-17,6.3l-8.4,31.7l9.2,11.9
		c1.2,1.9,3.8,2.4,5.7,1.2C140.1,72.4,140.7,71.5,141,70.6z"/>

		<linearGradient id="SVGID_4_" gradientUnits="userSpaceOnUse" x1="279.7195" y1="156.5409" x2="24.0895" y2="17.8209" gradientTransform="matrix(1 0 0 -1 0 156)">
		<stop  offset="0" style="stop-color:#9732BA"/>
		<stop  offset="0.87" style="stop-color:#0190CF"/>
	</linearGradient>
	<path class="st5" d="M41.4,115.3c-4.2,0-9.3,7-11.4,15.6s-0.4,15.6,3.8,15.6s9.3-7,11.4-15.6S45.6,115.3,41.4,115.3z"/>

		<linearGradient id="SVGID_5_" gradientUnits="userSpaceOnUse" x1="292.5046" y1="132.9699" x2="36.8746" y2="-5.7501" gradientTransform="matrix(1 0 0 -1 0 156)">
		<stop  offset="0" style="stop-color:#9732BA"/>
		<stop  offset="0.87" style="stop-color:#0190CF"/>
	</linearGradient>
	<path class="st6" d="M104,109.2c-5,0-11.2,8.3-13.7,18.7s-0.5,18.6,4.5,18.6s11.1-8.3,13.7-18.6S109.1,109.2,104,109.2z"/>
</g>
</svg>
